<svg xmlns="http://www.w3.org/2000/svg" viewBox="0 0 100 100" width="100" height="100">
  <defs>
    <linearGradient id="bg" x1="0" y1="0" x2="0" y2="1">
      <stop offset="0" stop-color="#ffe8e2"/>
      <stop offset="1" stop-color="#f08a70" stop-opacity="0.35"/>
    </linearGradient>
  </defs>
  <rect width="100" height="100" rx="14" fill="url(#bg)"/>
  <g transform="translate(74 26)"><line x1="0" y1="-12" x2="0" y2="-16" stroke="#f08a70" stroke-width="2" stroke-linecap="round" transform="rotate(0)"/><line x1="0" y1="-12" x2="0" y2="-16" stroke="#f08a70" stroke-width="2" stroke-linecap="round" transform="rotate(30)"/><line x1="0" y1="-12" x2="0" y2="-16" stroke="#f08a70" stroke-width="2" stroke-linecap="round" transform="rotate(60)"/><line x1="0" y1="-12" x2="0" y2="-16" stroke="#f08a70" stroke-width="2" stroke-linecap="round" transform="rotate(90)"/><line x1="0" y1="-12" x2="0" y2="-16" stroke="#f08a70" stroke-width="2" stroke-linecap="round" transform="rotate(120)"/><line x1="0" y1="-12" x2="0" y2="-16" stroke="#f08a70" stroke-width="2" stroke-linecap="round" transform="rotate(150)"/><line x1="0" y1="-12" x2="0" y2="-16" stroke="#f08a70" stroke-width="2" stroke-linecap="round" transform="rotate(180)"/><line x1="0" y1="-12" x2="0" y2="-16" stroke="#f08a70" stroke-width="2" stroke-linecap="round" transform="rotate(210)"/><line x1="0" y1="-12" x2="0" y2="-16" stroke="#f08a70" stroke-width="2" stroke-linecap="round" transform="rotate(240)"/><line x1="0" y1="-12" x2="0" y2="-16" stroke="#f08a70" stroke-width="2" stroke-linecap="round" transform="rotate(270)"/><line x1="0" y1="-12" x2="0" y2="-16" stroke="#f08a70" stroke-width="2" stroke-linecap="round" transform="rotate(300)"/><line x1="0" y1="-12" x2="0" y2="-16" stroke="#f08a70" stroke-width="2" stroke-linecap="round" transform="rotate(330)"/><circle r="9" fill="#f08a70"/></g><g transform="translate(50 84) rotate(0)"><path d="M0 0 Q 22 -9 0 -18 Q -22 -9 0 0 Z" fill="#f08a70"/><path d="M0 0 L0 -16.560000000000002" stroke="#641400" stroke-width="1" fill="none" opacity="0.5"/></g><g transform="translate(46 54)"><ellipse cx="0" cy="-10.54" rx="7.82" ry="11.22" fill="#f08a70" transform="rotate(0)"/><ellipse cx="0" cy="-10.54" rx="7.82" ry="11.22" fill="#f08a70" transform="rotate(72)"/><ellipse cx="0" cy="-10.54" rx="7.82" ry="11.22" fill="#f08a70" transform="rotate(144)"/><ellipse cx="0" cy="-10.54" rx="7.82" ry="11.22" fill="#f08a70" transform="rotate(216)"/><ellipse cx="0" cy="-10.54" rx="7.82" ry="11.22" fill="#f08a70" transform="rotate(288)"/><circle r="5.78" fill="#e0492c"/></g><g transform="translate(46 54)"><ellipse cx="0" cy="-4.96" rx="3.68" ry="5.28" fill="#e0492c" transform="rotate(0)"/><ellipse cx="0" cy="-4.96" rx="3.68" ry="5.28" fill="#e0492c" transform="rotate(72)"/><ellipse cx="0" cy="-4.96" rx="3.68" ry="5.28" fill="#e0492c" transform="rotate(144)"/><ellipse cx="0" cy="-4.96" rx="3.68" ry="5.28" fill="#e0492c" transform="rotate(216)"/><ellipse cx="0" cy="-4.96" rx="3.68" ry="5.28" fill="#e0492c" transform="rotate(288)"/><circle r="2.72" fill="#641400"/></g>
</svg>